<?xml version="1.0" standalone="no"?>
<!DOCTYPE svg PUBLIC "-//W3C//DTD SVG 20010904//EN"
 "http://www.w3.org/TR/2001/REC-SVG-20010904/DTD/svg10.dtd">
<svg version="1.0" xmlns="http://www.w3.org/2000/svg"
 width="16.000000pt" height="16.000000pt" viewBox="0 0 16.000000 16.000000"
 preserveAspectRatio="xMidYMid meet">
<metadata>
Created by potrace 1.11, written by Peter Selinger 2001-2013
</metadata>
<g transform="translate(0.000000,16.000000) scale(0.004030,-0.004030)"
fill="#000000" stroke="none">
<path d="M944 3830 l1 -50 -105 -4 c-100 -4 -128 -8 -171 -21 -35 -11 -19 -48
53 -122 79 -81 83 -83 102 -57 10 13 3 24 -38 66 -56 57 -53 64 34 73 93 10
108 13 118 19 6 3 13 -9 16 -27 3 -18 15 -49 26 -69 l19 -36 -24 -16 c-14 -9
-25 -14 -25 -10 0 3 -16 -6 -36 -21 -19 -15 -38 -24 -42 -20 -7 6 12 25 70 71
19 15 25 27 21 43 -5 21 -27 29 -37 12 -3 -5 -28 -4 -57 1 -66 12 -82 6 -40
-17 27 -14 39 -15 53 -6 27 17 23 10 -27 -44 -45 -48 -105 -142 -105 -164 0
-7 8 -11 18 -10 9 1 26 0 37 -1 14 -1 11 -5 -12 -11 -18 -5 -37 -18 -43 -29
-37 -70 -39 76 -2 152 l21 42 -22 15 c-12 9 -24 14 -27 12 -10 -8 -48 -110
-42 -115 9 -10 -6 -7 -76 15 -64 21 -100 39 -75 39 6 0 18 6 26 14 15 15 87
56 99 56 4 0 19 5 33 10 l27 10 -26 21 c-18 15 -32 18 -48 13 -13 -5 -25 -8
-28 -9 -13 -2 -87 -40 -101 -52 -8 -7 -39 -26 -69 -42 l-53 -29 76 -35 c42
-19 90 -38 106 -42 17 -4 33 -11 36 -16 4 -5 -1 -6 -9 -3 -21 8 -30 -34 -22
-109 8 -82 38 -140 91 -178 39 -28 66 -69 45 -69 -24 0 -140 118 -140 142 0 5
-10 7 -22 4 l-23 -6 23 11 c15 8 22 21 22 41 0 32 -3 33 -33 16 -25 -14 -38
-18 -85 -25 l-34 -5 30 52 c17 29 46 69 66 90 20 21 36 40 36 43 0 3 -13 10
-29 15 -28 10 -33 7 -74 -37 -48 -51 -90 -125 -101 -177 -6 -29 -5 -32 23 -37
17 -4 54 -2 82 3 29 6 55 10 59 10 3 0 16 -18 28 -39 12 -22 48 -63 80 -92 31
-29 50 -49 42 -44 -13 8 -13 7 -1 -8 14 -17 37 -24 27 -9 -9 16 93 -23 111
-41 17 -17 16 -18 -22 -13 -67 9 -85 14 -132 40 -48 28 -58 27 -65 -2 -4 -14
4 -24 28 -37 19 -10 34 -22 34 -27 0 -5 -5 -6 -12 -2 -8 5 -9 0 -5 -17 4 -13
7 -37 7 -54 0 -46 22 -15 23 34 2 40 10 51 22 31 4 -6 11 -8 16 -5 12 8 12 0
0 -23 -5 -9 -15 -38 -21 -64 -24 -92 -46 -76 -94 70 l-21 63 -23 -21 c-31 -29
-24 -66 34 -185 23 -49 71 -112 77 -104 22 28 47 73 61 109 22 56 31 130 17
130 -6 0 -11 4 -11 9 0 13 42 0 60 -18 13 -12 15 -12 18 0 1 8 14 20 29 26 22
11 28 10 39 -5 7 -9 14 -20 14 -23 0 -11 98 -49 127 -49 32 0 75 -19 80 -36 2
-7 -9 -10 -31 -9 -26 2 -44 -5 -71 -27 -20 -17 -37 -29 -39 -27 -1 2 -8 19
-16 37 -9 23 -18 31 -29 27 -9 -3 -6 3 7 13 19 15 21 20 10 29 -10 8 -108 10
-159 4 -4 -1 -10 -9 -13 -18 -8 -20 9 -32 49 -34 17 -1 22 -3 13 -6 -25 -6
-22 -14 18 -47 l35 -29 -7 29 c-3 16 -11 33 -15 39 -14 14 -11 21 10 22 15 1
22 -9 32 -50 7 -29 12 -54 12 -57 0 -3 3 -15 8 -28 l9 -23 -32 23 c-18 12 -57
42 -86 66 -52 42 -72 46 -72 14 1 -23 16 -40 70 -82 25 -19 47 -37 50 -40 16
-17 82 -61 104 -70 29 -10 29 -10 28 50 0 20 2 26 5 13 5 -24 88 -61 156 -69
l38 -5 -17 26 c-23 35 -41 42 -99 39 -37 -2 -45 0 -32 7 31 18 70 13 131 -16
33 -15 72 -28 88 -27 33 1 32 4 13 -42 -15 -36 -20 -94 -11 -131 2 -11 5 -26
5 -32 1 -19 21 -16 21 2 0 36 56 115 82 115 4 0 1 -17 -8 -37 -21 -50 -21
-120 0 -160 9 -18 20 -33 24 -33 4 0 16 14 27 30 11 16 26 31 33 31 6 1 18 2
25 4 6 1 22 -5 35 -12 22 -14 29 -10 115 55 130 99 162 132 124 132 -20 0
-117 69 -151 108 -17 19 -37 41 -43 48 -7 7 -34 53 -61 102 l-49 90 34 16 c54
26 143 85 143 95 0 5 -15 15 -32 22 -35 14 -38 15 -65 19 -13 1 -14 3 -5 7 32
13 152 228 152 272 0 5 -29 8 -64 7 -36 0 -59 2 -51 7 10 5 13 41 13 152 0 80
-4 148 -8 150 -18 11 -100 -65 -200 -188 -4 -4 -32 4 -64 18 -75 33 -88 33
-81 -2 3 -16 2 -22 -1 -14 -4 8 -19 25 -33 38 l-26 24 65 -4 c36 -3 82 -13
103 -23 l39 -18 18 24 19 25 -46 22 c-26 12 -49 22 -52 21 -54 -5 -53 23 4
146 l13 29 48 -102 48 -102 18 23 c10 13 18 29 18 36 0 31 -120 232 -139 232
-5 0 -21 -18 -35 -41 l-28 -41 -19 21 c-38 41 -221 151 -251 151 -3 0 -5 -23
-4 -50z m128 -79 c25 -16 56 -38 69 -50 13 -11 31 -26 40 -33 12 -9 15 -19 9
-33 -8 -18 -9 -18 -9 -2 -1 17 -7 18 -53 12 -29 -4 -69 -13 -88 -21 -29 -12
-32 -12 -17 0 15 11 16 18 6 42 -6 16 -13 40 -15 53 -14 71 -8 74 58 32z m101
-177 c-3 -9 0 -20 8 -25 10 -6 1 -9 -26 -9 -22 -1 -56 -7 -76 -14 -31 -11 -41
-11 -65 2 l-28 15 30 15 c37 19 78 30 126 31 30 1 36 -2 31 -15z m-263 -54
c-16 -10 84 -59 127 -62 18 -2 45 -16 65 -33 18 -17 56 -46 85 -65 42 -28 50
-37 42 -51 -5 -10 -9 -29 -9 -43 0 -16 -6 -26 -15 -26 -8 0 -24 -9 -35 -20
-20 -20 -21 -20 -48 -1 -71 51 -164 2 -164 -85 0 -19 -4 -32 -8 -29 -12 7 -62
-14 -81 -34 -9 -10 -20 -33 -24 -51 l-7 -33 -15 31 c-19 38 -43 50 -43 20 0
-30 -8 -19 -15 22 -12 68 -26 111 -35 105 -6 -4 -10 -14 -11 -23 0 -9 -3 -12
-5 -5 -3 6 2 27 10 47 8 19 18 57 21 83 6 39 16 57 52 95 25 25 43 50 40 56
-4 5 25 15 63 21 39 7 70 16 70 20 0 12 -68 38 -82 31 -31 -17 -58 -21 -58 -9
0 23 28 44 60 45 17 1 26 -2 20 -6z m130 -30 c6 -11 8 -20 6 -20 -3 0 -10 9
-16 20 -6 11 -8 20 -6 20 3 0 10 -9 16 -20z m441 -67 c-2 -126 -4 -132 -62
-161 -19 -10 -33 -24 -31 -32 3 -11 0 -11 -13 0 -8 7 -14 18 -13 24 4 15 -40
71 -49 62 -3 -3 4 -17 17 -31 24 -25 22 -35 -2 -12 -7 6 -29 20 -48 29 -21 10
-28 17 -17 17 16 1 16 3 2 31 -14 27 -14 29 2 23 24 -9 65 -34 78 -47 6 -6 22
-22 37 -34 25 -23 27 -23 53 -6 27 18 27 18 7 34 -15 13 -18 20 -10 35 6 10
13 34 15 54 4 34 4 35 -11 15 -8 -11 -18 -33 -22 -48 -5 -21 -9 -24 -20 -15
-8 6 -14 15 -14 19 0 12 92 111 97 106 3 -3 5 -31 4 -63z m-824 -60 c-3 -47
-2 -66 3 -48 7 28 8 28 9 5 1 -14 5 -32 11 -40 7 -12 12 -12 29 5 12 10 23 16
26 13 3 -3 -6 -13 -20 -22 -14 -9 -25 -25 -25 -35 0 -10 -3 -20 -6 -24 -9 -9
-34 19 -34 37 0 8 -4 17 -8 20 -5 3 -10 38 -11 78 -1 39 -4 75 -7 80 -3 4 5 8
17 8 21 0 22 -3 16 -77z m672 -150 c31 -38 61 -110 61 -148 0 -13 10 -27 23
-34 13 -7 15 -9 4 -6 -10 3 -38 5 -62 5 -38 0 -44 3 -42 20 1 11 4 20 7 20 11
0 11 72 0 105 -11 33 -39 58 -75 68 -17 4 -17 5 3 6 14 1 21 5 16 12 -15 25
36 -13 65 -48z m204 -41 c-9 -26 -19 -49 -23 -52 -3 -3 -16 -20 -29 -37 -23
-34 -38 -42 -38 -20 0 6 -3 23 -7 36 -5 15 -5 21 2 17 6 -3 19 10 31 30 29 48
26 53 -9 19 -16 -16 -32 -27 -34 -24 -2 2 -11 20 -21 39 -14 27 -15 32 -3 23
9 -8 18 -9 24 -3 6 6 30 13 55 16 24 3 46 8 48 10 2 2 7 1 12 -1 4 -3 0 -27
-8 -53z m-270 -43 c4 -14 -4 -31 -22 -51 l-28 -31 -1 46 c-2 34 2 48 15 56 21
12 29 7 36 -20z m-159 -27 c7 -12 18 -92 12 -92 -3 0 -19 14 -36 30 -26 25
-29 33 -20 50 11 20 35 27 44 12z m363 -78 c-3 -3 -12 -4 -19 -1 -8 3 -5 6 6
6 11 1 17 -2 13 -5z m-180 -32 c-15 -17 -12 -18 76 -17 51 0 101 -5 111 -12
18 -10 15 -13 -32 -39 -36 -20 -50 -34 -46 -44 4 -12 3 -13 -7 -2 -7 6 -24 12
-37 12 l-25 0 27 21 c32 25 34 42 4 30 -22 -8 -67 -6 -76 4 -2 2 -15 0 -28 -6
-20 -7 -23 -6 -17 4 15 26 58 74 62 71 2 -2 -3 -12 -12 -22z m-286 -11 c40
-35 33 -48 -18 -35 -40 10 -56 39 -31 55 7 5 14 9 14 9 1 0 16 -13 35 -29z
m62 -262 l27 -12 -40 -18 c-22 -10 -43 -25 -46 -34 -6 -14 -8 -14 -19 1 -6 9
-16 14 -22 11 -5 -3 -10 -1 -10 6 0 7 -3 25 -6 40 l-6 28 48 -5 c26 -3 60 -10
74 -17z"/>
<path d="M1065 3689 c16 -31 40 -47 53 -35 6 7 -50 66 -63 66 -3 0 2 -14 10
-31z"/>
<path d="M1054 3551 c6 -9 74 -6 84 3 3 3 -16 6 -42 6 -26 0 -45 -4 -42 -9z"/>
<path d="M1280 3604 c0 -20 23 -79 34 -86 20 -14 25 -8 15 20 -11 32 -48 82
-49 66z"/>
<path d="M638 3548 c-37 -13 -35 -24 3 -24 18 1 34 8 40 19 12 20 0 21 -43 5z"/>
<path d="M2720 3438 c-25 -11 -57 -29 -72 -39 -21 -16 -43 -19 -125 -18 -87 2
-104 -1 -150 -24 -35 -18 -73 -28 -121 -31 -72 -6 -121 -21 -123 -40 -3 -25 3
-42 19 -54 15 -12 11 -13 -25 -7 -24 4 -57 2 -75 -4 -18 -5 -55 -13 -82 -16
-27 -3 -60 -12 -73 -20 -13 -9 -23 -11 -23 -6 0 23 -78 30 -91 9 -9 -14 -1
-114 12 -165 6 -23 20 -51 30 -62 18 -19 25 -41 14 -41 -16 0 -75 38 -115 73
-69 61 -162 99 -145 60 5 -10 19 -49 33 -88 38 -105 64 -124 171 -122 39 1 73
-2 75 -8 3 -5 5 -2 5 8 1 14 4 15 14 5 19 -17 0 -52 -34 -65 -21 -8 -28 -19
-33 -56 -4 -25 -16 -57 -27 -70 -10 -14 -19 -28 -19 -32 0 -10 83 1 106 13 74
42 168 68 192 53 6 -4 9 -17 5 -29 -4 -15 -37 -40 -107 -79 -121 -68 -267
-163 -356 -232 -54 -42 -182 -104 -208 -100 -4 1 -9 0 -12 -1 -3 -1 -16 -3
-30 -4 -58 -6 -118 -19 -160 -35 -51 -20 -124 -20 -169 -1 -37 15 -37 17 -11
45 12 12 23 38 27 58 4 29 1 40 -20 61 -17 17 -34 25 -49 22 -13 -2 -38 5 -56
16 -45 28 -122 27 -157 0 l-27 -21 29 -6 c71 -14 76 -18 77 -56 l1 -37 -29 15
c-22 11 -34 12 -50 4 -11 -6 -39 -13 -61 -15 -71 -8 -116 -40 -138 -98 -8 -23
-1 -23 34 3 16 11 43 21 61 22 31 2 33 0 30 -30 -2 -17 1 -34 7 -38 6 -3 11
-11 11 -16 0 -6 -4 -7 -10 -4 -5 3 -27 -12 -48 -35 -22 -22 -45 -40 -51 -40
-17 0 -63 -49 -56 -59 3 -5 1 -12 -4 -16 -6 -3 -5 -19 3 -42 14 -40 38 -58 31
-24 -2 11 5 31 16 46 21 26 39 33 39 14 0 -17 25 -37 54 -45 34 -8 113 21 121
45 7 22 72 52 100 47 11 -3 22 -5 24 -5 3 -1 -20 -13 -50 -28 -62 -32 -84 -67
-74 -119 5 -27 13 -37 40 -49 21 -8 35 -21 35 -31 0 -18 40 -84 51 -84 3 0 5
28 5 62 0 56 3 63 31 87 17 14 34 40 37 58 6 26 17 37 57 57 52 26 93 26 118
1 12 -12 9 -18 -18 -46 -46 -46 -60 -69 -66 -114 l-6 -40 32 38 c35 42 69 63
116 70 17 3 37 8 42 12 14 8 14 -8 0 -22 -13 -13 -30 -93 -19 -93 3 0 13 14
21 31 8 19 32 41 59 56 57 32 78 51 97 87 l15 30 13 -31 c10 -24 59 -83 68
-83 1 0 17 -4 34 -9 l32 -9 -19 27 c-15 19 -21 43 -21 89 -1 35 1 65 3 68 3 2
19 -17 37 -44 18 -26 47 -57 64 -69 32 -23 47 -23 30 -1 -16 22 -7 73 26 144
l32 68 26 -54 c40 -81 93 -128 218 -190 61 -30 112 -57 115 -60 3 -3 37 -26
75 -52 89 -59 117 -89 153 -161 25 -50 30 -71 30 -136 0 -100 -25 -176 -101
-303 -69 -114 -74 -146 -40 -219 51 -106 120 -139 246 -115 20 4 38 6 39 6 2
-1 16 4 32 10 25 9 32 8 53 -11 29 -28 29 -65 1 -120 -43 -80 -94 -121 -188
-151 -143 -44 -221 -55 -243 -33 -42 41 -137 51 -216 21 -24 -9 -47 -14 -51
-11 -5 3 -11 1 -14 -4 -3 -5 -18 -12 -33 -16 -32 -8 -93 -72 -93 -98 0 -17 1
-17 16 -2 39 38 110 53 136 27 13 -13 21 -82 9 -82 -4 0 -13 -11 -21 -24 -7
-14 -22 -27 -34 -30 -25 -7 -56 -32 -79 -66 -19 -27 -24 -125 -7 -135 9 -5 15
14 11 37 -1 11 67 66 81 64 7 -1 26 -14 41 -28 31 -29 59 -30 120 -5 l35 15 6
-31 c3 -19 25 -51 50 -77 45 -47 88 -60 138 -44 18 5 17 8 -11 25 -38 23 -38
26 -6 51 27 21 73 102 78 138 4 25 19 41 43 44 12 2 24 -9 37 -35 16 -32 32
-45 67 -54 3 -1 19 -7 35 -14 60 -25 130 2 162 62 18 36 11 44 -19 23 -23 -16
-67 -22 -69 -8 -1 4 -3 23 -5 42 -1 19 -5 52 -7 73 -4 34 -1 41 40 77 25 22
54 40 64 40 27 0 54 -65 53 -127 0 -39 3 -50 12 -42 24 20 56 113 58 170 2 68
11 83 26 44 7 -19 8 -43 2 -72 -5 -24 -6 -43 -2 -43 22 0 94 135 89 168 -3 18
2 33 9 28 5 -3 7 -19 6 -36 -1 -20 2 -30 9 -27 21 6 40 59 41 112 2 44 4 50
25 51 31 2 76 48 90 93 17 59 15 63 -26 41 -56 -30 -89 -26 -129 14 -23 23
-34 43 -34 64 0 46 -18 54 -69 31 -33 -14 -47 -16 -63 -8 -18 10 -19 18 -14
112 3 56 5 108 5 116 1 11 7 10 24 -6 28 -25 121 -67 177 -79 154 -33 254 -18
325 50 61 59 86 131 80 236 -2 44 -7 85 -10 90 -3 5 -8 18 -10 27 -3 10 -10
36 -16 58 -22 75 -7 111 80 195 93 90 117 128 137 215 10 40 19 102 18 113 -1
6 -2 26 -3 43 -1 41 -18 28 -26 -20 -10 -60 -57 -125 -123 -169 -64 -44 -152
-135 -152 -159 0 -8 -4 -11 -10 -8 -16 10 -2 94 25 143 14 26 51 74 83 107
147 154 191 259 168 403 -10 62 -23 68 -29 13 -3 -28 -10 -57 -14 -64 -4 -6
-8 -17 -9 -24 -3 -21 -57 -86 -127 -152 -70 -67 -124 -150 -156 -242 -22 -62
-35 -50 -34 31 2 77 26 141 91 240 31 47 59 87 62 90 13 11 79 128 103 182 81
178 78 322 -9 454 -54 82 -166 142 -242 129 -20 -3 -43 -6 -50 -7 -8 -1 -35
-21 -62 -45 -54 -48 -80 -104 -100 -213 -17 -93 -63 -226 -115 -333 -53 -109
-65 -157 -61 -246 3 -64 41 -191 59 -191 6 0 -1 79 -9 88 -1 2 5 25 13 50 17
51 46 94 108 160 22 24 47 56 55 70 8 15 17 29 21 32 15 14 65 148 61 163 -1
5 2 6 8 2 13 -8 6 -159 -10 -199 -16 -42 -5 -43 35 -2 84 86 108 167 79 262
-7 23 -12 74 -11 114 2 58 6 74 21 86 34 24 100 -13 127 -71 14 -32 18 -130 8
-180 -11 -52 -54 -137 -120 -240 -89 -138 -113 -180 -143 -255 -32 -78 -36
-96 -41 -183 -7 -98 6 -143 94 -322 83 -169 101 -217 101 -276 0 -126 -115
-191 -250 -140 -101 38 -169 117 -184 215 -24 148 -102 323 -189 422 -99 113
-138 185 -143 267 -2 34 0 53 4 42 12 -35 35 -61 90 -100 62 -44 79 -74 77
-132 -2 -46 0 -50 18 -30 29 30 57 120 51 162 -10 77 -18 104 -46 163 -25 54
-32 84 -36 154 -6 121 0 132 44 79 20 -23 44 -46 54 -51 18 -10 19 -9 4 32
-22 63 -10 116 50 211 90 143 108 194 111 307 1 67 -33 189 -62 218 -19 20
-16 29 10 28 50 -4 122 23 149 55 30 35 28 55 -3 38 -29 -15 -86 -14 -147 5
-30 8 -57 15 -60 15 -4 -1 -12 -1 -19 0 -18 2 17 75 51 106 l27 25 -28 0 c-15
-1 -48 -10 -73 -22z m-454 -229 c-16 -5 -39 -18 -52 -30 -13 -12 -30 -19 -38
-16 -37 14 -2 45 64 57 44 8 64 -1 26 -11z m59 -70 c9 -28 -20 -69 -50 -69
-28 0 -55 24 -55 51 0 22 18 26 26 5 10 -27 58 -4 51 24 -7 25 20 14 28 -11z
m-215 -213 c-5 -21 -6 -44 -4 -51 9 -23 -11 -24 -75 -5 -83 26 -101 26 -102
-2 l-2 -23 -4 23 c-3 13 -11 26 -19 29 -22 8 -16 33 9 34 50 1 133 13 157 22
23 8 45 14 47 13 1 -1 -2 -19 -7 -40z m-51 -101 c11 -11 10 -15 -5 -22 -30
-15 -111 -16 -120 -1 -13 20 -11 32 5 39 24 9 105 -1 120 -16z"/>
<path d="M522 3340 c-34 -41 -31 -48 13 -28 18 8 25 19 25 40 0 15 -1 28 -2
28 -2 0 -18 -18 -36 -40z"/>
<path d="M456 3201 c-32 -7 -31 -6 -44 -116 -6 -61 1 -171 12 -183 7 -6 80 45
106 74 40 46 70 92 70 108 0 32 -24 28 -54 -10 -17 -21 -41 -50 -54 -64 l-23
-25 5 90 c3 50 8 100 12 113 3 12 5 21 3 21 -2 -1 -17 -4 -33 -8z"/>
<path d="M525 3143 c-4 -10 -11 -33 -15 -51 -7 -28 -6 -31 7 -21 8 7 21 25 28
40 12 23 12 29 1 38 -11 9 -15 7 -21 -6z"/>
<path d="M690 3010 c0 -5 7 -10 16 -10 8 0 12 5 9 10 -3 6 -10 10 -16 10 -5 0
-9 -4 -9 -10z"/>
<path d="M808 2893 c6 -2 18 -2 25 0 6 3 1 5 -13 5 -14 0 -19 -2 -12 -5z"/>
<path d="M926 2823 c-4 -9 5 -13 29 -13 46 0 54 17 10 22 -22 2 -36 -1 -39 -9z"/>
<path d="M1730 1667 c-19 -7 -48 -20 -65 -29 -16 -9 -44 -24 -61 -33 -43 -22
-82 -65 -87 -96 -8 -42 25 -119 84 -199 30 -41 54 -82 53 -90 0 -8 -2 -20 -2
-26 -4 -27 -113 -82 -194 -98 -99 -20 -123 -23 -165 -19 -50 4 -103 17 -140
35 -24 12 -39 46 -49 113 -9 60 -26 88 -59 100 -17 5 -43 25 -60 43 -16 19
-40 38 -53 43 -29 11 -47 2 -33 -15 5 -6 14 -30 19 -53 8 -33 6 -50 -9 -84
-11 -23 -20 -53 -21 -66 -1 -12 -7 -23 -13 -23 -6 0 -29 -15 -51 -32 -21 -18
-56 -42 -77 -52 -21 -11 -45 -33 -54 -50 -20 -38 -27 -86 -14 -86 6 0 11 5 11
11 0 29 70 62 109 52 11 -3 23 -13 26 -23 3 -10 17 -26 31 -35 25 -16 25 -16
6 -43 -43 -62 -52 -150 -10 -97 28 36 76 59 93 45 35 -29 71 -29 124 1 47 27
80 31 66 8 -4 -5 -8 -17 -10 -26 -2 -10 -4 -22 -6 -28 -6 -21 12 -52 36 -63
14 -6 25 -16 25 -22 0 -20 -30 -70 -42 -70 -6 0 -9 -3 -5 -6 11 -12 72 17 95
44 12 15 38 46 57 68 24 28 35 52 35 73 0 17 3 31 8 32 76 8 112 8 107 -1 -3
-6 -8 -31 -11 -57 -2 -25 -13 -61 -24 -79 -21 -37 -14 -49 22 -35 37 14 63 42
91 96 13 28 34 61 46 75 l21 25 -6 -40 c-4 -22 -10 -44 -15 -50 -5 -5 -9 -17
-9 -27 0 -12 5 -16 18 -11 18 6 62 48 62 59 0 11 54 94 61 94 9 0 -9 -79 -26
-112 -12 -25 -12 -28 5 -28 22 0 101 85 124 135 l17 36 21 -26 c52 -66 140
-69 173 -5 17 33 13 52 -7 32 -13 -13 -67 11 -69 31 -3 34 11 73 43 116 22 29
23 55 2 75 -24 24 -8 56 40 76 45 20 108 31 200 34 l58 2 20 44 c25 53 32 148
17 215 -15 65 -25 77 -58 69 -111 -27 -281 -9 -360 37 -44 26 -116 33 -161 16z"/>
</g>
</svg>
